<?xml version="1.0" encoding="UTF-8" standalone="no"?>
<!-- Created with Inkscape (http://www.inkscape.org/) -->

<svg
   xmlns:dc="http://purl.org/dc/elements/1.1/"
   xmlns:cc="http://creativecommons.org/ns#"
   xmlns:rdf="http://www.w3.org/1999/02/22-rdf-syntax-ns#"
   xmlns:svg="http://www.w3.org/2000/svg"
   xmlns="http://www.w3.org/2000/svg"
   xmlns:sodipodi="http://sodipodi.sourceforge.net/DTD/sodipodi-0.dtd"
   xmlns:inkscape="http://www.inkscape.org/namespaces/inkscape"
   version="1.1"
   id="svg3713"
   xml:space="preserve"
   width="115.94409"
   height="53.780945"
   viewBox="0 0 115.94409 53.780944"
   sodipodi:docname="worldfish.svg"
   inkscape:version="0.92.4 (5da689c313, 2019-01-14)"><metadata
     id="metadata3719"><rdf:RDF><cc:Work
         rdf:about=""><dc:format>image/svg+xml</dc:format><dc:type
           rdf:resource="http://purl.org/dc/dcmitype/StillImage" /><dc:title></dc:title></cc:Work></rdf:RDF></metadata><defs
     id="defs3717"><clipPath
       clipPathUnits="userSpaceOnUse"
       id="clipPath3757"><path
         d="M 0,0 H 595.276 V 841.89 H 0 Z"
         id="path3755"
         inkscape:connector-curvature="0" /></clipPath><clipPath
       clipPathUnits="userSpaceOnUse"
       id="clipPath3781"><path
         d="M 0,0 H 595.276 V 841.89 H 0 Z"
         id="path3779"
         inkscape:connector-curvature="0" /></clipPath><clipPath
       clipPathUnits="userSpaceOnUse"
       id="clipPath3795"><path
         d="M 0,0 H 595.276 V 841.89 H 0 Z"
         id="path3793"
         inkscape:connector-curvature="0" /></clipPath><clipPath
       clipPathUnits="userSpaceOnUse"
       id="clipPath3815"><path
         d="M 0,0 H 595.276 V 841.89 H 0 Z"
         id="path3813"
         inkscape:connector-curvature="0" /></clipPath></defs><sodipodi:namedview
     pagecolor="#ffffff"
     bordercolor="#666666"
     borderopacity="1"
     objecttolerance="10"
     gridtolerance="10"
     guidetolerance="10"
     inkscape:pageopacity="0"
     inkscape:pageshadow="2"
     inkscape:window-width="1920"
     inkscape:window-height="1017"
     id="namedview3715"
     showgrid="false"
     fit-margin-top="1"
     fit-margin-bottom="1"
     fit-margin-left="1"
     fit-margin-right="1"
     inkscape:zoom="4.2734315"
     inkscape:cx="102.81766"
     inkscape:cy="72.20664"
     inkscape:window-x="-8"
     inkscape:window-y="-8"
     inkscape:window-maximized="1"
     inkscape:current-layer="g3721" /><g
     id="g3721"
     inkscape:groupmode="layer"
     inkscape:label="2018-12"
     transform="matrix(1.3333333,0,0,-1.3333333,-640.96132,90.575743)"><text
   transform="matrix(1,0,0,-1,28.3465,259.9606)"
   style="font-variant:normal;font-weight:bold;font-stretch:normal;font-size:20px;font-family:'Myriad Pro';-inkscape-font-specification:MyriadPro-Bold;writing-mode:lr-tb;fill:#ffffff;fill-opacity:1;fill-rule:nonzero;stroke:none"
   id="text3745"><tspan
     x="0 12.84 24.74 36.400002 46.959999 55.98 67.639999 73.139999 80.480003 92.139999 99.578003 110.138 114.178 121.418 131.978 140.998 152.718 164.438 169.918 179.01801 189.578 194.89799 200.09801 204.138 214.438 226.03799 235.136 245.53799 252.87801 258.358 269.89801 281.61801 292.17801 297.496 302.69601 306.73599 317.29599 329.01599 340.936 344.97601 355.53601 367.13599 374.47601 381.91599 392.47601 404.436 411.87601 422.436 434.15601 444.716 456.37601 463.97601 472.65601 484.37601 489.85599 501.81601"
     y="0"
     sodipodi:role="line"
     id="tspan3739">Aquaculture technical, vocational, and entrepreneurship </tspan><tspan
     x="0 7.3400002 14.72 25.280001 30.76 42.48 47.959999 59.68 71.379997 75.419998 82.038002 93.578003 101.178 105.218 110.698 127.898 139.858 147.298 158.658 168.95799 179.51801 191.438 195.478 207.438 215.03799 220.51801 230.978 241.37801 248.618 259.17801 263.21799 271.89801 282.45801 291.79599 299.03601 310.57599 318.17599 322.216 332.776 344.496 356.41599 360.45599 369.13599 386.336 396.896 402.396 407.896 419.616 431.15601 436.65601 448.57599 459.13599 466.73599"
     y="24"
     sodipodi:role="line"
     id="tspan3741">training for improved private sector and smallholder </tspan><tspan
     x="0 8.6800003 19.719999 25.200001 30.700001 36.200001 44.880001 48.919998 60.880001 68.318001 79.858002 85.678001 96.237999 105.578 112.918 116.958 122.438 134.158 138.198 149.81599 160.37601 177.576 189.536 195.01601"
     y="48"
     sodipodi:role="line"
     id="tspan3743">skills project in Zambia</tspan></text>

<text
   transform="matrix(0,1,1,0,566.9291,303.3071)"
   style="font-variant:normal;font-weight:300;font-stretch:normal;font-size:5px;font-family:'Myriad Pro Light';-inkscape-font-specification:MyriadPro-Light;writing-mode:lr-tb;fill:#ffffff;fill-opacity:1;fill-rule:nonzero;stroke:none"
   id="text3749"><tspan
     x="0 2.47 5.1500001 7.8099999 9.3249998 11.985 13.08 15.31 16.73 19.155001 21.875 22.92 24.465 25.334999 26.43 28.5895 30.009501 32.669498 35.349499 36.894501 37.989498 40.219501 42.8545 45.080002 47.505001 48.754501 49.6245 50.719501 53.039501 54.554501 56.9995 59.224499 61.649502 64.329498 65.4245 68.244499 70.904503 71.9645 74.389503 76.144501 80.113998 82.774002 84.289001 85.348999 88.069 90.228996 91.274002 93.139"
     y="0"
     sodipodi:role="line"
     id="tspan3747">Photo credit: Front cover, Steven Cole/WorldFish</tspan></text>

<g
   id="g4124"><g
     id="g3751"><g
       clip-path="url(#clipPath3757)"
       id="g3753"><g
         transform="translate(551.9642,28.5136)"
         id="g3759"><path
           inkscape:connector-curvature="0"
           id="path3761"
           style="fill:#1a4985;fill-opacity:1;fill-rule:nonzero;stroke:none"
           d="m 0,0 h 3.16 v 3.565 c 0,0.675 0.12,1.143 0.358,1.404 0.236,0.261 0.547,0.392 0.93,0.392 0.346,0 0.616,-0.097 0.807,-0.29 C 5.446,4.877 5.542,4.548 5.542,4.082 V 0 H 8.716 V 4.718 C 8.716,5.69 8.469,6.412 7.976,6.883 7.481,7.353 6.806,7.59 5.946,7.59 5.367,7.59 4.865,7.502 4.44,7.331 4.017,7.159 3.59,6.873 3.16,6.473 v 3.775 H 0 Z" /></g><g
         transform="translate(543.8013,28.9261)"
         id="g3763"><path
           inkscape:connector-curvature="0"
           id="path3765"
           style="fill:#1a4985;fill-opacity:1;fill-rule:nonzero;stroke:none"
           d="m 0,0 c 0.638,-0.386 1.711,-0.58 3.216,-0.58 1.065,0 1.907,0.12 2.525,0.359 0.618,0.241 1.07,0.562 1.357,0.967 0.288,0.405 0.431,0.823 0.431,1.25 0,0.423 -0.136,0.811 -0.407,1.165 C 6.85,3.515 6.458,3.788 5.946,3.978 5.435,4.168 4.653,4.317 3.604,4.425 2.909,4.499 2.46,4.582 2.255,4.676 c -0.206,0.092 -0.31,0.229 -0.31,0.41 0,0.163 0.082,0.302 0.244,0.416 0.164,0.113 0.424,0.17 0.78,0.17 0.352,0 0.651,-0.074 0.9,-0.225 C 4.05,5.335 4.179,5.159 4.256,4.92 L 7.251,5.186 C 7.043,5.671 6.783,6.057 6.471,6.342 6.157,6.627 5.768,6.837 5.299,6.974 4.831,7.108 4.105,7.177 3.122,7.177 2.191,7.177 1.449,7.089 0.896,6.915 0.341,6.74 -0.093,6.476 -0.408,6.122 -0.724,5.769 -0.882,5.347 -0.882,4.859 -0.882,4.412 -0.735,4.015 -0.443,3.665 -0.15,3.317 0.209,3.068 0.636,2.923 1.062,2.775 1.824,2.616 2.921,2.443 3.655,2.328 4.107,2.23 4.278,2.152 4.515,2.039 4.633,1.881 4.633,1.677 4.633,1.496 4.542,1.344 4.362,1.224 4.128,1.061 3.801,0.98 3.376,0.98 2.989,0.98 2.679,1.052 2.447,1.195 2.213,1.339 2.033,1.579 1.903,1.913 L -1.23,1.649 C -1.049,0.935 -0.638,0.386 0,0" /></g></g></g><path
     inkscape:connector-curvature="0"
     id="path3767"
     style="fill:#1a4985;fill-opacity:1;fill-rule:nonzero;stroke:none"
     d="m 538.469,28.514 h 3.161 v 7.422 h -3.161 z" /><path
     inkscape:connector-curvature="0"
     id="path3769"
     style="fill:#1a4985;fill-opacity:1;fill-rule:nonzero;stroke:none"
     d="m 538.469,36.826 h 3.161 v 1.936 h -3.161 z" /><g
     transform="translate(528.7904,28.5136)"
     id="g3771"><path
       inkscape:connector-curvature="0"
       id="path3773"
       style="fill:#1a4985;fill-opacity:1;fill-rule:nonzero;stroke:none"
       d="M 0,0 H 3.551 V 4.72 H 7.993 V 7.046 H 3.551 v 2.019 h 5.194 v 2.479 H 0 Z" /></g><g
     id="g3775"><g
       clip-path="url(#clipPath3781)"
       id="g3777"><g
         transform="translate(524.6689,38.7619)"
         id="g3783"><path
           inkscape:connector-curvature="0"
           id="path3785"
           style="fill:#1a4985;fill-opacity:1;fill-rule:nonzero;stroke:none"
           d="m 0,0 v -3.556 c -0.311,0.299 -0.667,0.523 -1.069,0.672 -0.401,0.15 -0.848,0.225 -1.34,0.225 -1.01,0 -1.843,-0.327 -2.498,-0.978 -0.655,-0.652 -0.983,-1.594 -0.983,-2.823 0,-1.1 0.296,-2.034 0.889,-2.802 0.594,-0.768 1.452,-1.153 2.577,-1.153 0.559,0 1.066,0.108 1.523,0.322 0.341,0.163 0.719,0.479 1.134,0.946 v -1.101 H 3.188 V 0 Z m -0.381,-7.901 c -0.269,-0.284 -0.607,-0.426 -1.011,-0.426 -0.379,0 -0.696,0.141 -0.953,0.422 -0.256,0.28 -0.385,0.722 -0.385,1.326 0,0.646 0.125,1.105 0.374,1.379 0.249,0.274 0.557,0.411 0.925,0.411 0.42,0 0.767,-0.143 1.042,-0.429 0.275,-0.286 0.412,-0.718 0.412,-1.298 0,-0.641 -0.135,-1.103 -0.404,-1.385" /></g></g></g><path
     inkscape:connector-curvature="0"
     id="path3787"
     style="fill:#1a4985;fill-opacity:1;fill-rule:nonzero;stroke:none"
     d="m 514.671,28.514 h 3.175 v 10.248 h -3.175 z" /><g
     id="g3789"><g
       clip-path="url(#clipPath3795)"
       id="g3791"><g
         transform="translate(507.2489,28.5136)"
         id="g3797"><path
           inkscape:connector-curvature="0"
           id="path3799"
           style="fill:#1a4985;fill-opacity:1;fill-rule:nonzero;stroke:none"
           d="m 0,0 h 3.174 v 2.485 c 0,1.187 0.164,1.996 0.489,2.429 0.229,0.308 0.549,0.461 0.962,0.461 0.218,0 0.513,-0.07 0.885,-0.209 L 6.489,7.198 C 5.935,7.459 5.425,7.59 4.96,7.59 4.515,7.59 4.141,7.489 3.838,7.292 3.536,7.092 3.242,6.73 2.957,6.203 V 7.422 H 0 Z" /></g><g
         transform="translate(505.2776,34.8101)"
         id="g3801"><path
           inkscape:connector-curvature="0"
           id="path3803"
           style="fill:#1a4985;fill-opacity:1;fill-rule:nonzero;stroke:none"
           d="m 0,0 c -0.843,0.861 -2.09,1.293 -3.74,1.293 -1.445,0 -2.59,-0.367 -3.439,-1.101 -0.848,-0.734 -1.272,-1.667 -1.272,-2.799 0,-1.215 0.501,-2.199 1.504,-2.948 0.819,-0.606 1.89,-0.909 3.214,-0.909 1.486,0 2.648,0.365 3.489,1.094 0.84,0.728 1.261,1.664 1.261,2.806 C 1.017,-1.549 0.678,-0.694 0,0 m -2.595,-4.075 c -0.291,-0.311 -0.664,-0.467 -1.118,-0.467 -0.449,0 -0.822,0.158 -1.119,0.474 -0.296,0.316 -0.445,0.805 -0.445,1.465 0,0.651 0.15,1.135 0.449,1.455 0.299,0.318 0.679,0.477 1.138,0.477 0.433,0 0.797,-0.157 1.091,-0.471 0.294,-0.313 0.441,-0.791 0.441,-1.433 0,-0.688 -0.145,-1.188 -0.437,-1.5" /></g></g></g><g
     transform="translate(484.018,28.5672)"
     id="g3805"><path
       inkscape:connector-curvature="0"
       id="path3807"
       style="fill:#1a4985;fill-opacity:1;fill-rule:nonzero;stroke:none"
       d="M 0,0 H 3.467 L 5.466,7.268 7.475,0 h 3.468 l 2.523,11.544 H 10.125 L 8.904,5.113 7.128,11.544 H 3.798 L 2.028,5.112 0.809,11.544 h -3.356 z" /></g><g
     id="g3809"><g
       clip-path="url(#clipPath3815)"
       id="g3811"><g
         transform="translate(545.1791,42.3034)"
         id="g3817"><path
           inkscape:connector-curvature="0"
           id="path3819"
           style="fill:#58ab47;fill-opacity:1;fill-rule:nonzero;stroke:none"
           d="m 0,0 c 0,0 7.867,7.133 12.622,8.471 3.838,1.08 6.133,-0.45 6.681,-3.248 0.817,-4.172 -2.097,-8.095 -2.097,-8.095 0,0 2.866,6.711 -0.775,8.472 C 13.83,6.858 10.084,5.366 8.443,4.69 6.767,4.001 0,0 0,0" /></g><g
         transform="translate(549.4119,61.6868)"
         id="g3821"><path
           inkscape:connector-curvature="0"
           id="path3823"
           style="fill:#1a4985;fill-opacity:1;fill-rule:nonzero;stroke:none"
           d="m 0,0 c 0,0 3.909,-5.224 0.362,-9.026 -3.054,-3.275 -10.49,-2.409 -10.49,-2.409 0,0 0.072,11.115 12.509,12.253 3.114,0.284 10.119,0.136 13.148,-7.89 2.843,-7.533 -2.559,-15.066 -2.559,-15.066 0,0 2.19,5.591 -0.497,7.426 -4.89,3.341 -17.128,-5.507 -17.128,-5.507 0,0 11.069,5.866 15.493,3.447 3.163,-1.73 0.711,-7.712 0.711,-7.712 0,0 8.59,7.767 5.159,18.798 C 15.5,-1.8 10.912,4.945 1.741,3.02 c -13.887,-2.913 -12.58,-14.996 -12.58,-14.996 0,0 6.717,-1.953 10.424,0.498 3.026,2.001 3.512,3.704 3.187,6.098 C 2.239,-1.456 0,0 0,0" /></g><g
         transform="translate(556.5873,52.8206)"
         id="g3825"><path
           inkscape:connector-curvature="0"
           id="path3827"
           style="fill:#58ab47;fill-opacity:1;fill-rule:nonzero;stroke:none"
           d="M 0,0 C 0.853,0.405 0.949,1.991 0.213,3.543 -0.522,5.094 -1.809,6.025 -2.663,5.621 -3.516,5.217 -3.612,3.631 -2.877,2.079 -2.14,0.527 -0.853,-0.404 0,0" /></g><g
         transform="translate(539.0736,49.0403)"
         id="g3829"><path
           inkscape:connector-curvature="0"
           id="path3831"
           style="fill:#58ab47;fill-opacity:1;fill-rule:nonzero;stroke:none"
           d="m 0,0 c 0,0 3.75,-1.114 8.813,-0.092 3.695,0.746 8.13,2.45 10.824,4.939 5.153,4.762 3.781,12.757 3.781,12.757 0,0 -0.107,0.988 0.533,0.285 C 24.435,17.356 26.306,11.909 23.02,6.304 20.894,2.679 15.977,0.384 11.108,-0.625 5.076,-1.876 0.441,-0.718 0,-0.568 -0.462,-0.412 -0.746,0.121 0,0" /></g><g
         transform="translate(544.2833,54.5977)"
         id="g3833"><path
           inkscape:connector-curvature="0"
           id="path3835"
           style="fill:#1a4985;fill-opacity:1;fill-rule:nonzero;stroke:none"
           d="M 0,0 C 0.659,0 1.194,0.535 1.194,1.194 1.194,1.854 0.659,2.388 0,2.388 -0.659,2.388 -1.194,1.854 -1.194,1.194 -1.194,0.535 -0.659,0 0,0" /></g></g></g></g></g></svg>